<svg width="1445" height="631" viewBox="0 0 1445 631" fill="none" xmlns="http://www.w3.org/2000/svg">
<path d="M132.167 302.011C132.167 302.011 144.371 297.59 152.642 294.534C160.913 291.479 181.616 281.155 181.616 281.155L413.018 379.925C411.473 393.697 409.927 402.748 408.382 411.405C406.502 421.937 401.042 437.77 401.042 437.77C401.042 437.77 374.773 450.362 357.002 465.315C340.404 479.282 336.486 489.913 327.293 508.36C318.101 526.806 298.338 544.803 280.873 550.202C274.908 552.046 257.882 550.202 257.882 550.202L247.146 524.685C247.146 524.685 262.304 507.46 259.731 494.862C256.513 479.115 243.644 467.417 228.937 450.77C214.229 434.123 187.469 417.547 160.878 384.312C127.145 342.148 132.167 302.011 132.167 302.011Z" fill="#204336" stroke="#204336" stroke-width="7.55721"/>
<path d="M189.365 160.356C189.365 192.967 194.164 204.065 204.122 224.011C204.122 224.011 207.339 237.757 196.768 259.105C186.197 280.453 178.039 283.27 175.463 284.337C173.25 285.254 170.026 290.993 170.026 303.585C170.026 326.409 172.779 338.146 179.684 348.838C189.342 363.791 211.459 381.702 227.587 390.943C246.13 401.568 268.658 409.835 303.129 409.835C369.076 409.835 397.618 386.882 413.245 378.783C416.769 367.685 423.816 362.038 423.816 330.192C423.816 298.346 416.769 272.602 413.245 251.456C427.493 223.711 451.084 186.273 453.152 164.209C455.648 137.591 447.438 128.941 423.816 135.377C392.553 143.896 373.106 174.67 359.93 192.967C351.81 192.667 331.067 192.247 313.05 192.967C295.033 193.687 271.225 198.966 261.573 201.515C247.785 174.37 226.794 121 210.04 121C197.171 121 189.365 136.541 189.365 160.356Z" fill="#FFF1DD" stroke="#204336" stroke-width="7.55721"/>
<path d="M357.095 325.304C357.217 326.347 356.999 328.084 356.221 330.304C355.466 332.458 354.28 334.788 352.788 336.924C349.615 341.465 345.917 343.997 342.946 343.997C341.91 343.997 339.972 343.471 337.373 342.114C334.889 340.818 332.193 338.969 329.749 336.842C327.294 334.706 325.222 332.4 323.878 330.238C322.48 327.989 322.167 326.387 322.326 325.446C322.76 322.89 323.823 321.309 325.13 320.226C326.515 319.078 328.423 318.29 330.787 317.813C334.678 317.028 338.86 317.219 342.459 317.384C343.399 317.427 344.3 317.468 345.146 317.49C349.163 317.592 352.039 318.451 353.906 319.73C355.649 320.924 356.787 322.662 357.095 325.304Z" fill="#FFF1DD" stroke="#204336" stroke-width="7.55721"/>
<path d="M1225.61 256.526C1211.44 279.934 1122.11 337.526 1095.11 322.526C1069.89 308.514 1083.46 240.526 1118.11 206.026" stroke="#C8D0F3" stroke-width="12"/>
<path d="M1094 322.5C1094 322.5 1023 453 735.5 453C637 453 487.5 432.5 391 389" stroke="#C8D0F3" stroke-width="12"/>
<path d="M164.5 285C167 290 170.311 319.514 183.5 345.5C207.57 392.925 267.333 408.659 320.5 410C369.244 411.23 405 378.5 417.5 381" stroke="#C8D0F3" stroke-width="12"/>
<path d="M1442 3.5C1397 33.0312 1235.5 115.5 1222 124.5C1208.5 133.5 1177 137 1161 144C1148.2 149.6 1112 171.667 1095.5 182C1095.5 185.167 1094.4 193 1090 199C1085.6 205 1077.5 216.167 1074 221C1075.33 224.667 1080.4 230.9 1090 226.5C1102 221 1114.5 207 1114.5 203C1114.5 199 1128 195 1138.5 195" stroke="#204336" stroke-width="6"/>
<path d="M1154 258.5C1154.67 260.167 1162.15 267.456 1166.5 268.5C1176 270.78 1179 268.5 1183.5 265C1187.17 258.167 1192.2 246.5 1195 242.5C1198.5 237.5 1212.59 220.535 1215 214.5C1217 209.5 1216.5 201 1211 197C1204.5 193.5 1198.4 194.2 1194 197C1189.6 199.8 1181.33 211.833 1176 219" stroke="#204336" stroke-width="6"/>
<path d="M1135.04 229.23C1133.36 230.679 1131.42 232.835 1129.45 235.049C1129.3 235.217 1129.15 235.387 1128.99 235.557C1127.09 237.69 1125.08 239.952 1122.96 242.073C1120.67 244.368 1118.35 246.395 1116.08 247.835C1113.79 249.286 1111.77 250 1110 250C1105.46 250 1103.33 248.759 1102.11 247.052C1100.72 245.084 1100 241.783 1100 236.5C1100 235.889 1100.29 234.739 1101.22 233.002C1102.11 231.333 1103.43 229.39 1105.13 227.274C1108.53 223.048 1113.23 218.368 1118.3 214.14C1123.37 209.906 1128.71 206.225 1133.35 203.923C1135.67 202.771 1137.72 202.016 1139.41 201.675C1141.08 201.339 1142.12 201.463 1142.7 201.704C1144.81 202.832 1145.92 204.353 1146.42 206.101C1146.96 207.971 1146.86 210.346 1146.06 213.094C1144.44 218.618 1140.2 224.775 1135.04 229.23Z" stroke="#204336" stroke-width="6"/>
<path d="M1218.82 254.406C1217.22 256.093 1215.56 258.634 1213.93 261.195C1213.61 261.701 1213.29 262.213 1212.96 262.73C1211.57 264.936 1210.13 267.218 1208.59 269.393C1206.68 272.082 1204.75 274.424 1202.79 276.074C1200.82 277.727 1199.08 278.468 1197.5 278.468C1192.96 278.468 1190.83 277.227 1189.61 275.52C1188.22 273.552 1187.5 270.251 1187.5 264.968C1187.5 264.232 1187.8 262.888 1188.64 260.901C1189.45 258.987 1190.64 256.727 1192.15 254.249C1195.18 249.298 1199.35 243.675 1203.88 238.518C1208.42 233.346 1213.21 228.764 1217.44 225.809C1219.56 224.327 1221.41 223.341 1222.93 222.851C1224.41 222.376 1225.25 222.465 1225.7 222.643C1227.64 223.684 1228.75 225.312 1229.26 227.512C1229.79 229.849 1229.62 232.823 1228.78 236.158C1227.09 242.843 1222.98 250.021 1218.82 254.406Z" stroke="#204336" stroke-width="6"/>
<path d="M1123 242C1122 244.167 1123.1 248.7 1125.5 253.5C1128.5 259.5 1132.5 265 1141 265C1149.5 265 1165.5 247.5 1167 238.5C1168.2 231.3 1178.17 215.167 1183 208C1184 205.5 1185.4 199.8 1183 197C1180 193.5 1175 190.5 1170 192C1165 193.5 1156 201 1153.5 204.5C1151.5 207.3 1150.67 211.667 1150.5 213.5C1148.17 215.333 1143 219.8 1141 223C1139 226.2 1134 238 1134 243" stroke="#204336" stroke-width="6"/>
<path d="M1204.5 275C1204.5 275 1219.92 266.173 1228.5 260C1238.15 253.058 1241.58 246.784 1249 237.5C1262.64 220.444 1276 177 1276 177L1442 95.5" stroke="#204336" stroke-width="6"/>
<path d="M301.098 393.631C297.789 379.593 297.574 363.186 297.881 356.737C305.694 358.687 320.585 361.686 328.674 361.686C338.786 361.686 357.63 354.038 355.332 358.087C353.034 362.136 357.17 377.884 359.928 393.631C362.686 409.378 353.034 429.624 348.438 431.874C343.841 434.123 337.867 433.674 328.674 431.874C319.482 430.074 305.234 411.178 301.098 393.631Z" fill="#FFF1DD"/>
<path d="M297.881 356.737C297.574 363.186 297.789 379.593 301.098 393.631C305.234 411.178 319.482 430.074 328.674 431.874C337.867 433.674 343.841 434.123 348.438 431.874C353.034 429.624 362.686 409.378 359.928 393.631C357.17 377.884 352.574 360.787 354.872 356.737" stroke="#EFAA86" stroke-width="7.55721"/>
<path d="M271.068 326.143C271.068 326.143 279.639 363.936 331.274 361.236C382.908 358.537 373.716 324.343 373.716 324.343" stroke="#204336" stroke-width="7.55721"/>
<path d="M222.046 468.766C238.592 504.61 272.236 580.436 274.442 596.993C277.2 617.689 268.008 623.088 251.462 626.238C234.916 629.387 218.37 624.888 206.879 612.74C197.687 603.022 178.537 566.399 166.893 544.803" stroke="#204336" stroke-width="7.55721"/>
<path d="M316.826 542.836C314.988 549.884 311.391 559.921 312.127 571.799C313.046 586.646 314.885 614.091 329.133 618.14C343.38 622.19 371.417 624.439 379.69 612.741C387.963 601.044 383.826 576.324 383.826 560.551C383.826 544.354 384.944 528.969 386.584 509.71C388.422 488.114 398.534 471.017 399.913 456.619C401.016 445.102 400.372 437.423 399.913 435.023" stroke="#204336" stroke-width="7.55721"/>
<path d="M1.5 539.698C1.5 539.698 5.28058 539.698 56.6582 539.698C114.555 539.699 169.044 546.308 169.044 546.308" stroke="#204336" stroke-width="7.55721"/>
<path d="M1.5 306C1.5 306 26.5617 301.224 77.9394 301.224C110.53 301.225 132.384 301.6 132.384 301.6" stroke="#204336" stroke-width="7.55721"/>
</svg>
