<svg width="196" height="39" viewBox="0 0 196 39" fill="none" xmlns="http://www.w3.org/2000/svg">
<path d="M19.1959 0L23.5056 13.264H37.4522L26.1692 21.4616L30.4789 34.7257L19.1959 26.528L7.91282 34.7257L12.2226 21.4616L0.939512 13.264H14.8861L19.1959 0Z" fill="#204336"/>
<path d="M59.6085 0L63.9182 13.264H77.8648L66.5818 21.4616L70.8915 34.7257L59.6085 26.528L48.3254 34.7257L52.6352 21.4616L41.3521 13.264H55.2987L59.6085 0Z" fill="#204336"/>
<path d="M98.0001 0L102.31 13.264H116.256L104.973 21.4616L109.283 34.7257L98.0001 26.528L86.717 34.7257L91.0268 21.4616L79.7437 13.264H93.6903L98.0001 0Z" fill="#204336"/>
<path d="M136.392 0L140.701 13.264H154.648L143.365 21.4616L147.675 34.7257L136.392 26.528L125.109 34.7257L129.418 21.4616L118.135 13.264H132.082L136.392 0Z" fill="#204336"/>
<path d="M176.804 2.4142L180.404 13.4946L180.572 14.01H181.114H192.765L183.339 20.8581L182.901 21.1767L183.068 21.6922L186.668 32.7725L177.243 25.9245L176.804 25.6059L176.366 25.9245L166.94 32.7725L170.54 21.6922L170.708 21.1767L170.269 20.8581L160.844 14.01H172.495H173.037L173.204 13.4946L176.804 2.4142Z" stroke="#204336" stroke-width="1.49206"/>
</svg>
