<svg width="163" height="55" viewBox="0 0 163 55" fill="none" xmlns="http://www.w3.org/2000/svg">
<path d="M51.2435 15.7811V20.8296C51.2435 21.1954 51.2923 21.4799 51.3899 21.6832C51.4874 21.8864 51.6094 22.0409 51.7557 22.1466C51.902 22.2522 52.0606 22.3254 52.2313 22.3661C52.402 22.4067 52.5605 22.4514 52.7069 22.5002C52.8532 22.549 52.9752 22.6181 53.0727 22.7075C53.1703 22.7888 53.219 22.927 53.219 23.1221C53.219 23.6262 53.1052 24.0611 52.8776 24.4269C52.6581 24.7928 52.3736 25.0935 52.024 25.3293C51.6744 25.5569 51.2801 25.7277 50.8411 25.8415C50.4103 25.9472 49.9875 26 49.5729 26C49.0851 26 48.6095 25.9472 48.1462 25.8415C47.6909 25.7277 47.2844 25.5569 46.9267 25.3293C46.5771 25.0935 46.2926 24.7928 46.0731 24.4269C45.8617 24.0611 45.7561 23.6262 45.7561 23.1221C45.7561 22.927 45.8048 22.7888 45.9024 22.7075C45.9999 22.6181 46.1178 22.553 46.256 22.5124C46.4024 22.4636 46.5568 22.4189 46.7194 22.3783C46.8901 22.3376 47.0446 22.2685 47.1828 22.171C47.3291 22.0653 47.4511 21.9149 47.5486 21.7198C47.6462 21.5246 47.695 21.2442 47.695 20.8783V11.6837C47.695 11.326 47.6462 11.0496 47.5486 10.8545C47.4511 10.6513 47.3291 10.5009 47.1828 10.4033C47.0446 10.2976 46.8901 10.2245 46.7194 10.1838C46.5568 10.1432 46.4024 10.1025 46.256 10.0619C46.1178 10.0131 45.9999 9.94807 45.9024 9.86678C45.8048 9.77735 45.7561 9.63508 45.7561 9.43997C45.7561 8.93593 45.8739 8.50507 46.1097 8.14736C46.3455 7.78153 46.6666 7.4848 47.0731 7.25717C47.4877 7.02141 47.9673 6.85069 48.512 6.745C49.0648 6.63119 49.6583 6.57428 50.2924 6.57428C50.894 6.57428 51.398 6.63119 51.8045 6.745C52.2191 6.85882 52.589 7.04173 52.9142 7.29375C53.2394 7.53764 53.5442 7.85876 53.8288 8.25711C54.1214 8.65546 54.4425 9.13511 54.7921 9.69605L58.0602 14.9884L61.0113 9.96433C61.2796 9.50094 61.5641 9.06601 61.8649 8.65953C62.1738 8.24492 62.5153 7.88315 62.8892 7.57422C63.2632 7.2653 63.6819 7.02141 64.1452 6.84256C64.6086 6.66371 65.1371 6.57428 65.7305 6.57428C66.7223 6.57428 67.5759 6.63119 68.2914 6.745C69.0068 6.85069 69.5921 7.02141 70.0473 7.25717C70.5107 7.4848 70.8522 7.78153 71.0717 8.14736C71.2912 8.50507 71.4009 8.93593 71.4009 9.43997C71.4009 9.63508 71.3522 9.77735 71.2546 9.86678C71.157 9.94807 71.0351 10.0131 70.8888 10.0619C70.7424 10.1025 70.5839 10.1432 70.4132 10.1838C70.2425 10.2245 70.0839 10.2976 69.9376 10.4033C69.7913 10.5009 69.6693 10.6513 69.5718 10.8545C69.4742 11.0496 69.4254 11.326 69.4254 11.6837V20.8296C69.4254 21.1954 69.4742 21.4799 69.5718 21.6832C69.6693 21.8864 69.7913 22.0409 69.9376 22.1466C70.0839 22.2522 70.2425 22.3254 70.4132 22.3661C70.5839 22.4067 70.7424 22.4514 70.8888 22.5002C71.0351 22.549 71.157 22.6181 71.2546 22.7075C71.3522 22.7888 71.4009 22.927 71.4009 23.1221C71.4009 24.1383 70.8766 24.874 69.8278 25.3293C68.7791 25.7764 67.263 26 65.2793 26C64.32 26 63.4664 25.9472 62.7185 25.8415C61.9787 25.7277 61.3527 25.5569 60.8406 25.3293C60.3365 25.0935 59.9504 24.7928 59.6821 24.4269C59.4219 24.0611 59.2919 23.6262 59.2919 23.1221C59.2919 22.927 59.3406 22.7888 59.4382 22.7075C59.5358 22.6181 59.6536 22.553 59.7918 22.5124C59.9382 22.4636 60.0926 22.4189 60.2552 22.3783C60.4259 22.3376 60.5804 22.2685 60.7186 22.171C60.8649 22.0653 60.9869 21.9149 61.0844 21.7198C61.182 21.5246 61.2308 21.2442 61.2308 20.8783V15.8055L56.8652 23.1221C56.7676 23.3091 56.6132 23.4026 56.4018 23.4026C56.2148 23.4026 56.0522 23.3091 55.914 23.1221L51.2435 15.7811ZM85.8967 14.8909C85.8967 14.5576 85.852 14.2974 85.7625 14.1104C85.6731 13.9235 85.5593 13.7853 85.4211 13.6958C85.291 13.5983 85.1488 13.5332 84.9943 13.5007C84.8398 13.4601 84.6935 13.4194 84.5553 13.3788C84.4252 13.3381 84.3155 13.2812 84.2261 13.208C84.1366 13.1268 84.0919 12.9967 84.0919 12.8178C84.0919 11.8911 84.5716 11.2244 85.5309 10.8179C86.4901 10.4033 87.8762 10.196 89.6892 10.196C90.2989 10.196 90.811 10.2529 91.2257 10.3667C91.6403 10.4806 91.9817 10.6391 92.25 10.8423C92.5264 11.0456 92.7378 11.2895 92.8841 11.574C93.0386 11.8585 93.1483 12.1756 93.2133 12.5252C93.2865 12.8666 93.3272 13.2324 93.3353 13.6227C93.3515 14.0129 93.3597 14.4194 93.3597 14.8421V21.3783C93.3597 21.7035 93.4003 21.9555 93.4816 22.1344C93.571 22.3132 93.6808 22.4514 93.8109 22.549C93.9491 22.6384 94.0913 22.6994 94.2377 22.7319C94.3921 22.7644 94.5344 22.801 94.6645 22.8416C94.8027 22.8823 94.9124 22.9433 94.9937 23.0246C95.0832 23.0977 95.1279 23.2237 95.1279 23.4026C95.1279 24.3294 94.6563 25.0001 93.7133 25.4147C92.7784 25.8211 91.437 26.0244 89.6892 26.0244C89.2583 26.0244 88.8762 25.9919 88.5429 25.9268C88.2096 25.8618 87.9169 25.7764 87.6649 25.6708C87.421 25.5651 87.2096 25.4472 87.0308 25.3171C86.8519 25.1789 86.7015 25.0366 86.5796 24.8903C86.295 24.5651 86.1162 24.1871 86.043 23.7562C85.6203 24.2359 85.1203 24.6627 84.5431 25.0366C84.2992 25.1992 84.0228 25.3578 83.7139 25.5122C83.405 25.6586 83.0676 25.7927 82.7017 25.9146C82.3359 26.0285 81.9376 26.1219 81.5067 26.1951C81.084 26.2683 80.6328 26.3049 80.1531 26.3049C79.2589 26.3049 78.4865 26.1951 77.8362 25.9756C77.1858 25.748 76.633 25.4472 76.1777 25.0732C75.7306 24.6993 75.3688 24.2643 75.0924 23.7684C74.816 23.2725 74.6006 22.7522 74.4461 22.2075C74.2917 21.6628 74.186 21.1141 74.1291 20.5613C74.0803 20.0003 74.0559 19.4679 74.0559 18.9638V14.9519C74.0559 14.6104 74.0112 14.3462 73.9218 14.1592C73.8323 13.9641 73.7185 13.8178 73.5803 13.7202C73.4421 13.6145 73.2958 13.5454 73.1413 13.5129C72.9869 13.4723 72.8405 13.4316 72.7023 13.391C72.5641 13.3422 72.4503 13.2812 72.3609 13.208C72.2714 13.1268 72.2267 12.9967 72.2267 12.8178C72.2267 11.8911 72.7064 11.2244 73.6657 10.8179C74.625 10.4033 76.0111 10.196 77.824 10.196C78.6288 10.196 79.271 10.2936 79.7507 10.4887C80.2303 10.6838 80.5962 10.9521 80.8482 11.2935C81.1002 11.6268 81.2628 12.0252 81.336 12.4886C81.4091 12.952 81.4457 13.4519 81.4457 13.9885V20.0125C81.4457 20.5166 81.4823 20.9678 81.5555 21.3661C81.6368 21.7563 81.7668 22.0897 81.9457 22.3661C82.1327 22.6425 82.3766 22.8538 82.6774 23.0002C82.9782 23.1384 83.3521 23.2075 83.7992 23.2075C84.0838 23.2075 84.3521 23.1628 84.6041 23.0733C84.8561 22.9839 85.0756 22.8579 85.2626 22.6953C85.4496 22.5327 85.5959 22.3417 85.7016 22.1222C85.8154 21.8945 85.8723 21.6466 85.8723 21.3783L85.8967 14.8909ZM114.977 21.3051C114.977 21.6385 115.022 21.8986 115.111 22.0856C115.201 22.2726 115.31 22.4148 115.44 22.5124C115.57 22.6018 115.713 22.6669 115.867 22.7075C116.03 22.74 116.176 22.7766 116.306 22.8173C116.436 22.8579 116.546 22.9189 116.635 23.0002C116.725 23.0733 116.77 23.1993 116.77 23.3782C116.77 24.305 116.29 24.9757 115.331 25.3903C114.371 25.7968 112.985 26 111.172 26C110.685 26 110.258 25.9634 109.892 25.8903C109.526 25.8171 109.209 25.7155 108.941 25.5854C108.681 25.4472 108.465 25.2846 108.294 25.0976C108.124 24.9025 107.986 24.6871 107.88 24.4513C107.668 24.6464 107.408 24.8537 107.099 25.0732C106.799 25.2927 106.429 25.496 105.99 25.6829C105.559 25.8618 105.059 26.0081 104.49 26.1219C103.929 26.2439 103.287 26.3049 102.563 26.3049C101.742 26.3049 101.014 26.191 100.38 25.9634C99.7543 25.7358 99.2096 25.4269 98.7462 25.0366C98.2909 24.6383 97.9088 24.1749 97.5999 23.6465C97.291 23.1181 97.043 22.553 96.8561 21.9515C96.6691 21.3499 96.5349 20.7279 96.4536 20.0857C96.3805 19.4435 96.3439 18.8094 96.3439 18.1834C96.3439 17.5411 96.3886 16.8908 96.478 16.2323C96.5756 15.5738 96.73 14.9356 96.9414 14.3177C97.1609 13.6999 97.4373 13.1186 97.7706 12.5739C98.1121 12.0293 98.5226 11.5577 99.0023 11.1594C99.4901 10.7529 100.055 10.4318 100.697 10.196C101.348 9.96027 102.083 9.84239 102.904 9.84239C103.482 9.84239 104.006 9.8871 104.478 9.97653C104.949 10.0578 105.372 10.1676 105.746 10.3058C106.128 10.444 106.461 10.6025 106.746 10.7814C107.038 10.9602 107.29 11.1391 107.502 11.3179V7.64739C107.502 7.31408 107.457 7.06206 107.368 6.89134C107.286 6.71248 107.177 6.57835 107.038 6.48892C106.908 6.39136 106.766 6.32633 106.612 6.29381C106.465 6.26129 106.323 6.22471 106.185 6.18406C106.055 6.14341 105.945 6.0865 105.856 6.01334C105.774 5.93204 105.734 5.80197 105.734 5.62312C105.734 5.15973 105.851 4.76544 106.087 4.44026C106.331 4.10694 106.685 3.8346 107.148 3.62323C107.612 3.40373 108.181 3.2452 108.855 3.14765C109.53 3.05009 110.302 3.00131 111.172 3.00131C112.05 3.00131 112.741 3.04603 113.245 3.13545C113.758 3.22488 114.144 3.37934 114.404 3.59884C114.672 3.81021 114.843 4.09881 114.916 4.46465C114.989 4.83048 115.026 5.2898 115.026 5.84262L114.977 21.3051ZM105.734 23.2075C106.059 23.2075 106.38 23.1506 106.697 23.0368C107.014 22.9229 107.29 22.7969 107.526 22.6587C107.51 22.4474 107.502 22.236 107.502 22.0246C107.502 21.8051 107.502 21.5816 107.502 21.3539V13.6349C107.225 13.4723 106.921 13.3219 106.587 13.1837C106.254 13.0373 105.912 12.9642 105.563 12.9642C105.189 12.9642 104.88 13.0495 104.636 13.2202C104.4 13.391 104.213 13.6796 104.075 14.086C103.937 14.4844 103.839 15.025 103.782 15.7079C103.734 16.3827 103.709 17.2241 103.709 18.2322C103.709 18.8419 103.73 19.4435 103.77 20.0369C103.811 20.6304 103.9 21.1629 104.039 21.6344C104.177 22.0978 104.38 22.4758 104.648 22.7685C104.917 23.0611 105.278 23.2075 105.734 23.2075ZM136.936 21.3051C136.936 21.6385 136.98 21.8986 137.07 22.0856C137.159 22.2726 137.269 22.4148 137.399 22.5124C137.529 22.6018 137.671 22.6669 137.826 22.7075C137.989 22.74 138.135 22.7766 138.265 22.8173C138.395 22.8579 138.505 22.9189 138.594 23.0002C138.684 23.0733 138.728 23.1993 138.728 23.3782C138.728 24.305 138.249 24.9757 137.289 25.3903C136.33 25.7968 134.944 26 133.131 26C132.643 26 132.216 25.9634 131.851 25.8903C131.485 25.8171 131.168 25.7155 130.899 25.5854C130.639 25.4472 130.424 25.2846 130.253 25.0976C130.082 24.9025 129.944 24.6871 129.839 24.4513C129.627 24.6464 129.367 24.8537 129.058 25.0732C128.757 25.2927 128.387 25.496 127.948 25.6829C127.518 25.8618 127.018 26.0081 126.449 26.1219C125.888 26.2439 125.245 26.3049 124.522 26.3049C123.701 26.3049 122.973 26.191 122.339 25.9634C121.713 25.7358 121.168 25.4269 120.705 25.0366C120.25 24.6383 119.868 24.1749 119.559 23.6465C119.25 23.1181 119.002 22.553 118.815 21.9515C118.628 21.3499 118.494 20.7279 118.412 20.0857C118.339 19.4435 118.303 18.8094 118.303 18.1834C118.303 17.5411 118.347 16.8908 118.437 16.2323C118.534 15.5738 118.689 14.9356 118.9 14.3177C119.12 13.6999 119.396 13.1186 119.729 12.5739C120.071 12.0293 120.481 11.5577 120.961 11.1594C121.449 10.7529 122.014 10.4318 122.656 10.196C123.306 9.96027 124.042 9.84239 124.863 9.84239C125.44 9.84239 125.965 9.8871 126.436 9.97653C126.908 10.0578 127.331 10.1676 127.705 10.3058C128.087 10.444 128.42 10.6025 128.704 10.7814C128.997 10.9602 129.249 11.1391 129.461 11.3179V7.64739C129.461 7.31408 129.416 7.06206 129.326 6.89134C129.245 6.71248 129.135 6.57835 128.997 6.48892C128.867 6.39136 128.725 6.32633 128.57 6.29381C128.424 6.26129 128.282 6.22471 128.144 6.18406C128.013 6.14341 127.904 6.0865 127.814 6.01334C127.733 5.93204 127.692 5.80197 127.692 5.62312C127.692 5.15973 127.81 4.76544 128.046 4.44026C128.29 4.10694 128.644 3.8346 129.107 3.62323C129.57 3.40373 130.139 3.2452 130.814 3.14765C131.489 3.05009 132.261 3.00131 133.131 3.00131C134.009 3.00131 134.7 3.04603 135.204 3.13545C135.716 3.22488 136.102 3.37934 136.363 3.59884C136.631 3.81021 136.802 4.09881 136.875 4.46465C136.948 4.83048 136.984 5.2898 136.984 5.84262L136.936 21.3051ZM127.692 23.2075C128.018 23.2075 128.339 23.1506 128.656 23.0368C128.973 22.9229 129.249 22.7969 129.485 22.6587C129.469 22.4474 129.461 22.236 129.461 22.0246C129.461 21.8051 129.461 21.5816 129.461 21.3539V13.6349C129.184 13.4723 128.879 13.3219 128.546 13.1837C128.213 13.0373 127.871 12.9642 127.522 12.9642C127.148 12.9642 126.839 13.0495 126.595 13.2202C126.359 13.391 126.172 13.6796 126.034 14.086C125.896 14.4844 125.798 15.025 125.741 15.7079C125.692 16.3827 125.668 17.2241 125.668 18.2322C125.668 18.8419 125.688 19.4435 125.729 20.0369C125.77 20.6304 125.859 21.1629 125.997 21.6344C126.136 22.0978 126.339 22.4758 126.607 22.7685C126.875 23.0611 127.237 23.2075 127.692 23.2075ZM151.7 18.2078L153.492 14.3909C153.557 14.2527 153.594 14.1511 153.602 14.086C153.61 14.021 153.614 13.9519 153.614 13.8787V13.708C153.614 13.6023 153.529 13.4966 153.358 13.391C153.196 13.2853 153.013 13.1755 152.809 13.0617C152.614 12.9479 152.431 12.826 152.261 12.6959C152.098 12.5658 152.017 12.4235 152.017 12.2691C152.017 11.8382 152.175 11.4886 152.492 11.2204C152.809 10.944 153.204 10.7326 153.675 10.5862C154.155 10.4318 154.667 10.3302 155.212 10.2814C155.756 10.2245 156.256 10.196 156.712 10.196C157.769 10.196 158.581 10.3586 159.151 10.6838C159.728 11.0009 160.016 11.5293 160.016 12.2691C160.016 12.4561 159.959 12.6024 159.846 12.7081C159.74 12.8056 159.598 12.8869 159.419 12.952C159.24 13.017 159.037 13.078 158.809 13.1349C158.59 13.1837 158.37 13.2568 158.151 13.3544C157.931 13.4519 157.724 13.582 157.529 13.7446C157.334 13.8991 157.171 14.1145 157.041 14.3909L150.968 27.5487C150.488 28.5893 150.005 29.4673 149.517 30.1827C149.037 30.9062 148.554 31.4916 148.066 31.9387C147.586 32.3939 147.107 32.7191 146.627 32.9142C146.155 33.1175 145.688 33.2191 145.225 33.2191C144.655 33.2191 144.123 33.089 143.627 32.8289C143.131 32.5769 142.7 32.2435 142.334 31.8289C141.969 31.4225 141.68 30.9672 141.469 30.4632C141.257 29.9591 141.152 29.4551 141.152 28.9511C141.152 28.3088 141.221 27.7682 141.359 27.3292C141.505 26.8983 141.692 26.5487 141.92 26.2805C142.147 26.0203 142.404 25.8333 142.688 25.7195C142.981 25.6057 143.277 25.5488 143.578 25.5488C143.944 25.5488 144.253 25.6382 144.505 25.8171C144.757 25.9878 144.964 26.1992 145.127 26.4512C145.29 26.7113 145.42 26.9918 145.517 27.2926C145.623 27.6015 145.716 27.882 145.798 28.134C145.879 28.3942 145.956 28.6096 146.029 28.7803C146.103 28.9592 146.192 29.0486 146.298 29.0486C146.371 29.0486 146.46 28.9917 146.566 28.8779C146.68 28.7722 146.81 28.5893 146.956 28.3291C147.102 28.0771 147.273 27.7438 147.468 27.3292C147.663 26.9146 147.891 26.4065 148.151 25.8049L141.981 14.3909C141.826 14.1064 141.652 13.8869 141.456 13.7324C141.261 13.5698 141.062 13.4479 140.859 13.3666C140.664 13.2772 140.473 13.2121 140.286 13.1715C140.099 13.1227 139.928 13.0698 139.774 13.0129C139.627 12.9479 139.509 12.8625 139.42 12.7569C139.331 12.6512 139.286 12.4886 139.286 12.2691C139.286 11.9683 139.363 11.7081 139.518 11.4886C139.672 11.2691 139.883 11.0822 140.152 10.9277C140.42 10.7732 140.737 10.6513 141.103 10.5619C141.469 10.4643 141.859 10.3911 142.273 10.3424C142.696 10.2855 143.135 10.2489 143.59 10.2326C144.046 10.2082 144.501 10.196 144.956 10.196C145.883 10.196 146.692 10.2245 147.383 10.2814C148.074 10.3383 148.647 10.444 149.102 10.5984C149.566 10.7448 149.907 10.9561 150.127 11.2326C150.354 11.5008 150.468 11.8463 150.468 12.2691C150.468 12.4235 150.395 12.5577 150.249 12.6715C150.102 12.7853 149.944 12.891 149.773 12.9885C149.602 13.0861 149.444 13.1837 149.297 13.2812C149.151 13.3706 149.078 13.4763 149.078 13.5983C149.078 13.6227 149.086 13.6592 149.102 13.708C149.143 13.7974 149.188 13.8909 149.236 13.9885C149.285 14.0779 149.354 14.2121 149.444 14.3909L151.7 18.2078ZM57.6212 44.8054C57.9952 44.8054 58.296 44.716 58.5236 44.5371C58.7512 44.3583 58.922 44.1306 59.0358 43.8542C59.1496 43.5778 59.2228 43.2689 59.2553 42.9275C59.2959 42.586 59.3163 42.2568 59.3163 41.9397C59.3163 41.7283 59.3122 41.5332 59.3041 41.3544C59.2959 41.1755 59.2919 41.0129 59.2919 40.8666C59.2919 40.4032 59.2715 39.9398 59.2309 39.4764C59.1984 39.0049 59.1089 38.5822 58.9626 38.2082C58.8244 37.8343 58.613 37.5294 58.3285 37.2936C58.044 37.0579 57.6578 36.94 57.17 36.94C56.8611 36.94 56.6172 36.9928 56.4384 37.0985C56.2676 37.1961 56.1376 37.3343 56.0481 37.5131C55.9669 37.692 55.914 37.8993 55.8896 38.1351C55.8734 38.3627 55.8652 38.6106 55.8652 38.8789V44.6835C55.8896 44.7078 55.9669 44.7282 56.0969 44.7444C56.2107 44.7607 56.3815 44.7769 56.6091 44.7932C56.8449 44.8013 57.1822 44.8054 57.6212 44.8054ZM58.7675 34.5743C60.2959 34.5743 61.6251 34.7531 62.7551 35.1108C63.8932 35.4604 64.8363 35.9238 65.5842 36.501C66.3402 37.0701 66.9012 37.7245 67.267 38.4643C67.641 39.196 67.828 39.9439 67.828 40.7081C67.828 41.4966 67.6329 42.273 67.2426 43.0372C66.8605 43.7933 66.2874 44.468 65.5232 45.0615C64.7672 45.6549 63.8241 46.1346 62.6941 46.5004C61.5641 46.8581 60.2552 47.037 58.7675 47.037C58.6374 47.037 58.4342 47.037 58.1578 47.037C57.8814 47.0289 57.5887 47.0248 57.2798 47.0248C56.979 47.0167 56.6904 47.0126 56.414 47.0126C56.1376 47.0045 55.9384 46.9963 55.8165 46.9882V48.8296C55.8165 49.1954 55.8652 49.4799 55.9628 49.6832C56.0603 49.8864 56.1823 50.0409 56.3286 50.1466C56.475 50.2522 56.6335 50.3254 56.8042 50.3661C56.9749 50.4067 57.1335 50.4514 57.2798 50.5002C57.4261 50.549 57.5481 50.6181 57.6456 50.7075C57.7432 50.7888 57.792 50.927 57.792 51.1221C57.792 52.1383 57.2676 52.874 56.2189 53.3293C55.1702 53.7764 53.654 54 51.6704 54C50.7111 54 49.8574 53.9472 49.1095 53.8415C48.3697 53.7277 47.7437 53.5569 47.2316 53.3293C46.7275 53.0935 46.3414 52.7928 46.0731 52.4269C45.813 52.0611 45.6829 51.6262 45.6829 51.1221C45.6829 50.927 45.7317 50.7888 45.8292 50.7075C45.9268 50.6181 46.0447 50.553 46.1829 50.5124C46.3292 50.4636 46.4837 50.4189 46.6462 50.3783C46.817 50.3376 46.9714 50.2685 47.1096 50.171C47.256 50.0653 47.3779 49.9149 47.4755 49.7198C47.573 49.5246 47.6218 49.2442 47.6218 48.8783V39.6837C47.6218 39.326 47.573 39.0496 47.4755 38.8545C47.3779 38.6513 47.256 38.5009 47.1096 38.4033C46.9714 38.2976 46.817 38.2245 46.6462 38.1838C46.4837 38.1432 46.3292 38.1025 46.1829 38.0619C46.0447 38.0131 45.9268 37.9481 45.8292 37.8668C45.7317 37.7774 45.6829 37.6351 45.6829 37.44C45.6829 36.9441 45.8089 36.5173 46.0609 36.1596C46.3211 35.7937 46.6991 35.4929 47.195 35.2572C47.6909 35.0214 48.3006 34.8507 49.0242 34.745C49.7477 34.6312 50.5769 34.5743 51.5118 34.5743H51.6704H58.7675ZM76.9216 51.5001C77.1899 51.5001 77.4053 51.4595 77.5679 51.3782C77.7386 51.2888 77.8687 51.1668 77.9581 51.0124C78.0475 50.8498 78.1044 50.6547 78.1288 50.427C78.1614 50.1913 78.1776 49.9271 78.1776 49.6344C78.1776 49.3824 78.1735 49.0613 78.1654 48.671C78.1573 48.2808 78.1492 47.8987 78.141 47.5248C78.1248 47.0858 78.1126 46.6305 78.1044 46.159C77.9906 46.1427 77.8809 46.1305 77.7752 46.1224C77.6776 46.1061 77.5801 46.098 77.4825 46.098C77.0679 46.098 76.7183 46.1834 76.4338 46.3541C76.1574 46.5167 75.9338 46.7484 75.7631 47.0492C75.5924 47.3418 75.4705 47.6914 75.3973 48.0979C75.3322 48.4962 75.2997 48.9312 75.2997 49.4027C75.2997 49.6872 75.316 49.9596 75.3485 50.2197C75.381 50.4717 75.4542 50.6953 75.568 50.8904C75.6818 51.0774 75.8444 51.2278 76.0558 51.3416C76.2753 51.4473 76.5639 51.5001 76.9216 51.5001ZM82.7993 54C82.3847 54 81.9701 53.9797 81.5555 53.939C81.149 53.8903 80.7588 53.7968 80.3848 53.6586C80.019 53.5204 79.6816 53.3212 79.3727 53.061C79.0637 52.8009 78.7995 52.4554 78.58 52.0245C78.4174 52.4066 78.1532 52.7399 77.7874 53.0244C77.4297 53.309 77.0191 53.5488 76.5558 53.7439C76.1005 53.9309 75.6168 54.0691 75.1046 54.1585C74.6006 54.2561 74.1169 54.3049 73.6535 54.3049C72.8324 54.3049 72.1129 54.2073 71.4951 54.0122C70.8772 53.8171 70.3569 53.5407 69.9342 53.183C69.5114 52.8171 69.1944 52.3822 68.983 51.8782C68.7716 51.3741 68.666 50.8091 68.666 50.1831C68.666 49.4433 68.7879 48.7442 69.0318 48.0857C69.2838 47.4191 69.7066 46.8378 70.3 46.3419C70.9016 45.846 71.7024 45.4558 72.7023 45.1712C73.7023 44.8786 74.9542 44.7322 76.4582 44.7322H78.1288C78.1288 43.8298 78.0963 43.0819 78.0313 42.4885C77.9744 41.895 77.8809 41.4235 77.7508 41.0739C77.6207 40.7243 77.4581 40.4804 77.263 40.3422C77.0679 40.204 76.8322 40.1349 76.5558 40.1349C76.2468 40.1349 75.9867 40.2284 75.7753 40.4154C75.5721 40.6024 75.4054 40.8747 75.2753 41.2324C75.1534 41.582 75.064 42.0088 75.0071 42.5129C74.9583 43.0088 74.9339 43.5738 74.9339 44.2079C74.5843 44.2079 74.2144 44.2038 73.8242 44.1957C73.4421 44.1794 73.06 44.1469 72.6779 44.0981C72.304 44.0493 71.9463 43.9762 71.6048 43.8786C71.2715 43.7729 70.9748 43.6347 70.7146 43.464C70.4545 43.2852 70.2472 43.0616 70.0927 42.7933C69.9382 42.525 69.861 42.1999 69.861 41.8178C69.861 41.2812 69.9992 40.7731 70.2756 40.2935C70.5602 39.8138 70.991 39.3951 71.5682 39.0374C72.1536 38.6716 72.8934 38.383 73.7876 38.1716C74.6819 37.9521 75.7469 37.8424 76.9826 37.8424C78.4215 37.8424 79.6613 37.9887 80.7019 38.2814C81.7425 38.5741 82.5961 39.0131 83.2627 39.5984C83.9374 40.1837 84.4334 40.9235 84.7504 41.8178C85.0756 42.7039 85.2382 43.7445 85.2382 44.9395V49.2564C85.2382 49.6059 85.2829 49.8783 85.3723 50.0734C85.4699 50.2685 85.5837 50.4189 85.7138 50.5246C85.852 50.6221 86.0024 50.6912 86.165 50.7319C86.3276 50.7725 86.4739 50.8173 86.604 50.866C86.7422 50.9067 86.856 50.9677 86.9454 51.0489C87.043 51.1221 87.0917 51.2481 87.0917 51.427C87.0917 52.2399 86.7259 52.874 85.9942 53.3293C85.2707 53.7764 84.2057 54 82.7993 54ZM112.819 40.3179C112.819 40.4479 112.774 40.5658 112.684 40.6715C112.595 40.7772 112.481 40.8788 112.343 40.9764C112.205 41.0739 112.05 41.1715 111.88 41.269C111.709 41.3584 111.542 41.4519 111.38 41.5495C111.217 41.647 111.067 41.7487 110.928 41.8544C110.798 41.96 110.701 42.0779 110.636 42.208L104.392 53.9024C104.343 53.9919 104.27 54.061 104.173 54.1097C104.083 54.1667 103.99 54.1951 103.892 54.1951C103.705 54.1951 103.555 54.0976 103.441 53.9024L100.112 48.0857L96.6244 53.9024C96.5675 53.9919 96.4902 54.061 96.3927 54.1097C96.3032 54.1667 96.2098 54.1951 96.1122 54.1951C95.9252 54.1951 95.7789 54.0976 95.6732 53.9024L89.5272 42.9153C89.3565 42.6063 89.1654 42.3503 88.9541 42.147C88.7508 41.9356 88.5476 41.7649 88.3443 41.6349C88.1411 41.4966 87.9419 41.3828 87.7468 41.2934C87.5598 41.204 87.3932 41.1146 87.2469 41.0251C87.1005 40.9357 86.9826 40.8422 86.8932 40.7447C86.8038 40.639 86.7591 40.5048 86.7591 40.3422C86.7591 39.887 86.8891 39.5212 87.1493 39.2447C87.4176 38.9602 87.8037 38.7407 88.3078 38.5862C88.8199 38.4318 89.4459 38.3302 90.1857 38.2814C90.9255 38.2245 91.771 38.196 92.7221 38.196C93.0067 38.196 93.3359 38.2082 93.7099 38.2326C94.0839 38.257 94.47 38.2976 94.8684 38.3546C95.2667 38.4115 95.6569 38.4928 96.039 38.5984C96.4293 38.696 96.7748 38.8261 97.0756 38.9887C97.3764 39.1431 97.6202 39.3342 97.8072 39.5618C97.9942 39.7813 98.0877 40.0414 98.0877 40.3422C98.0877 40.6024 98.0308 40.8016 97.917 40.9398C97.8113 41.078 97.6893 41.1918 97.5511 41.2812C97.4211 41.3625 97.2991 41.4438 97.1853 41.5251C97.0796 41.5983 97.0268 41.708 97.0268 41.8544C97.0268 41.96 97.0593 42.0779 97.1243 42.208L98.6974 45.5615L100.27 42.208C100.303 42.1511 100.319 42.0901 100.319 42.0251C100.319 41.8787 100.246 41.7527 100.1 41.647C99.9534 41.5414 99.7908 41.4275 99.612 41.3056C99.4413 41.1837 99.2827 41.0495 99.1364 40.9032C98.9901 40.7487 98.9169 40.5536 98.9169 40.3179C98.9169 39.8707 98.986 39.509 99.1242 39.2326C99.2706 38.948 99.486 38.7326 99.7705 38.5862C100.063 38.4318 100.429 38.3302 100.868 38.2814C101.315 38.2245 101.84 38.196 102.441 38.196C102.904 38.196 103.315 38.2285 103.673 38.2936C104.039 38.3505 104.343 38.4602 104.587 38.6228C104.831 38.7773 105.014 38.9927 105.136 39.2691C105.266 39.5455 105.331 39.9032 105.331 40.3422C105.047 40.578 104.799 40.8016 104.587 41.0129C104.4 41.1999 104.23 41.391 104.075 41.5861C103.921 41.7812 103.843 41.9478 103.843 42.086C103.843 42.143 103.852 42.1836 103.868 42.208L105.758 45.5615L107.477 42.208C107.51 42.1511 107.526 42.0901 107.526 42.0251C107.526 41.8869 107.453 41.7649 107.307 41.6592C107.16 41.5536 107.002 41.4438 106.831 41.33C106.66 41.208 106.502 41.0739 106.356 40.9276C106.209 40.7731 106.136 40.578 106.136 40.3422C106.136 39.9195 106.213 39.5699 106.368 39.2935C106.522 39.009 106.75 38.7895 107.051 38.635C107.36 38.4724 107.742 38.3586 108.197 38.2936C108.652 38.2285 109.181 38.196 109.782 38.196C110.197 38.196 110.583 38.2163 110.941 38.257C111.306 38.2976 111.624 38.3911 111.892 38.5375C112.16 38.6757 112.375 38.887 112.538 39.1716C112.701 39.448 112.794 39.8301 112.819 40.3179ZM122.693 41.0373C122.693 40.8503 122.522 40.6796 122.18 40.5252C121.839 40.3707 121.319 40.2935 120.62 40.2935C120.262 40.2935 119.969 40.3138 119.742 40.3544C119.522 40.3951 119.347 40.452 119.217 40.5252C119.087 40.5983 118.998 40.6878 118.949 40.7934C118.908 40.8991 118.888 41.0211 118.888 41.1593C118.888 41.4275 119.018 41.6633 119.278 41.8665C119.538 42.0617 119.88 42.2527 120.303 42.4397C120.733 42.6267 121.221 42.8136 121.766 43.0006C122.311 43.1876 122.867 43.403 123.436 43.6469C124.006 43.8827 124.562 44.1591 125.107 44.4762C125.652 44.7851 126.136 45.155 126.558 45.5858C126.989 46.0086 127.335 46.5045 127.595 47.0736C127.855 47.6426 127.985 48.3011 127.985 49.0491C127.985 49.9677 127.774 50.7603 127.351 51.427C126.936 52.0855 126.388 52.6302 125.705 53.061C125.022 53.4838 124.241 53.7968 123.363 54C122.493 54.2032 121.603 54.3049 120.693 54.3049C119.774 54.3049 118.872 54.2073 117.986 54.0122C117.108 53.8252 116.323 53.561 115.632 53.2196C114.941 52.8781 114.384 52.4676 113.961 51.9879C113.539 51.5083 113.327 50.9798 113.327 50.4026C113.327 50.0612 113.38 49.7645 113.486 49.5125C113.592 49.2523 113.73 49.0409 113.9 48.8783C114.079 48.7076 114.283 48.5816 114.51 48.5003C114.738 48.419 114.974 48.3784 115.217 48.3784C115.608 48.3784 115.929 48.4231 116.181 48.5125C116.433 48.6019 116.636 48.7198 116.791 48.8661C116.953 49.0044 117.083 49.1669 117.181 49.3539C117.278 49.5328 117.372 49.7198 117.461 49.9149C117.551 50.11 117.648 50.301 117.754 50.488C117.86 50.6669 118.002 50.8294 118.181 50.9758C118.36 51.114 118.587 51.2278 118.864 51.3172C119.148 51.4067 119.506 51.4514 119.937 51.4514C120.628 51.4514 121.136 51.3904 121.461 51.2684C121.794 51.1465 121.961 50.9067 121.961 50.549C121.961 50.4189 121.839 50.2929 121.595 50.171C121.359 50.0409 121.046 49.9067 120.656 49.7685C120.266 49.6303 119.819 49.4759 119.315 49.3051C118.811 49.1344 118.299 48.9352 117.778 48.7076C117.258 48.4719 116.746 48.2036 116.242 47.9028C115.738 47.5939 115.291 47.2402 114.9 46.8419C114.51 46.4354 114.193 45.972 113.949 45.4517C113.713 44.9314 113.596 44.342 113.596 43.6835C113.596 42.96 113.685 42.3137 113.864 41.7446C114.043 41.1674 114.291 40.6634 114.608 40.2325C114.933 39.7935 115.319 39.4236 115.766 39.1228C116.213 38.822 116.701 38.5781 117.23 38.3911C117.758 38.196 118.319 38.0578 118.912 37.9765C119.506 37.8871 120.116 37.8424 120.742 37.8424C121.823 37.8424 122.75 37.944 123.522 38.1472C124.294 38.3505 124.928 38.6106 125.424 38.9277C125.928 39.2447 126.298 39.6024 126.534 40.0008C126.77 40.391 126.888 40.7772 126.888 41.1593C126.888 41.4275 126.831 41.6836 126.717 41.9275C126.611 42.1633 126.453 42.3706 126.241 42.5494C126.03 42.7283 125.774 42.8706 125.473 42.9762C125.172 43.0819 124.827 43.1348 124.436 43.1348C123.997 43.1348 123.636 43.1104 123.351 43.0616C123.075 43.0128 122.851 42.9478 122.68 42.8665C122.518 42.7771 122.404 42.6754 122.339 42.5616C122.274 42.4397 122.241 42.3055 122.241 42.1592C122.241 42.0129 122.266 41.9031 122.315 41.83C122.363 41.7568 122.412 41.6877 122.461 41.6227C122.518 41.5495 122.571 41.4723 122.619 41.391C122.668 41.3097 122.693 41.1918 122.693 41.0373Z" fill="#204336"/>
<path d="M32.9494 33.3685C36.8218 34.8192 39.2893 40.1962 36.3876 42.7235C34.7673 44.1347 29.3011 43.0712 25.8143 44.0055C21.6667 45.1168 18.622 48.5901 15.9806 48.1915C12.4245 47.655 10.9468 42.2997 14.6166 37.3112C17.1748 33.8338 12.7847 29.0288 21.1973 26.7747C29.6099 24.5205 26.9146 31.1076 32.9494 33.3685Z" fill="#204336"/>
<ellipse cx="9.72489" cy="31.483" rx="4.12029" ry="4.86943" transform="rotate(-46.6275 9.72489 31.483)" fill="#204336"/>
<ellipse cx="32.5289" cy="24.5122" rx="4.12029" ry="4.86943" transform="rotate(8.2467 32.5289 24.5122)" fill="#204336"/>
<ellipse cx="14.1479" cy="22.6458" rx="4.12029" ry="5.80361" transform="rotate(-28.3693 14.1479 22.6458)" fill="#204336"/>
<ellipse cx="23.2202" cy="19.1209" rx="4.12029" ry="5.80361" transform="rotate(-3.6049 23.2202 19.1209)" fill="#204336"/>
</svg>
