<svg width="245" height="177" viewBox="0 0 245 177" fill="none" xmlns="http://www.w3.org/2000/svg">
<path d="M181.666 76.2169C186.516 93.0074 183.914 106.557 176.081 117.21C168.111 128.049 154.31 136.448 135.772 141.803C117.234 147.158 101.23 147.368 88.858 142.422C76.6954 137.56 67.3832 127.455 62.5237 110.632C57.4776 93.1634 57.3086 78.9633 63.4096 67.6087C69.5039 56.2668 82.4613 46.6438 106.296 39.7589C131.129 32.5856 147.326 33.8112 158.393 40.1546C169.479 46.5087 176.596 58.6638 181.666 76.2169Z" fill="#E9FF9B" stroke="#5577AC" stroke-width="9"/>
<path d="M143.749 36.1581C143.749 36.1581 169.686 34.3171 185.732 43.6976C203.358 54.0021 233.073 60.9761 223.759 79.1453C221.097 84.3385 219.25 88.1659 213.82 90.3041C208.321 92.4694 204.352 90.7205 198.761 88.8038C183.662 83.6268 180.269 72.2327 180.269 72.2327" stroke="#5577AC" stroke-width="8"/>
<path d="M68.9271 60.2079C68.9271 60.2079 50.7331 69.8092 42.6458 85.3991C33.7618 102.525 13.4572 122.936 30.0654 132.753C34.8124 135.559 38.2191 137.685 43.6362 136.654C49.1221 135.61 51.4111 132.21 54.9106 127.858C64.3624 116.104 61.3559 104.744 61.3559 104.744" stroke="#5577AC" stroke-width="8"/>
<path d="M131.228 84.2028C131.166 85.6771 130.111 87.9609 128.228 90.291C127.349 91.3786 126.411 92.3224 125.572 93.0205C125.154 93.3685 124.791 93.6309 124.499 93.8132C124.237 93.9767 124.097 94.0358 124.073 94.0456C124.069 94.0475 124.069 94.0476 124.072 94.0464C121.127 95.0113 116.041 94.0814 112.259 90.0942C112.167 89.9973 112.1 89.9181 112.051 89.8555C112.161 89.699 112.376 89.4405 112.784 89.0892C114.485 87.6264 117.66 86.1515 121.114 85.0195C124.364 83.9548 127.624 83.5248 129.794 83.8086C130.609 83.9152 131.04 84.0926 131.228 84.1948C131.228 84.1974 131.228 84.2001 131.228 84.2028ZM111.934 89.6704C111.935 89.6706 111.94 89.6804 111.946 89.6993C111.936 89.6797 111.933 89.6702 111.934 89.6704ZM131.223 84.0566C131.223 84.0566 131.224 84.0578 131.224 84.0604C131.224 84.058 131.223 84.0567 131.223 84.0566Z" stroke="#5577AC" stroke-width="8"/>
<path d="M124.112 96.4209L129.328 113.249C129.328 113.249 123.38 123.026 117.057 125.258C110.213 127.673 98.6413 122.762 98.6413 122.762" stroke="#5577AC" stroke-width="8"/>
<path d="M128.786 112.399C128.786 112.399 140.262 117.85 147.437 114.755C153.904 111.966 158.176 102.204 158.176 102.204" stroke="#5577AC" stroke-width="8"/>
</svg>
