<svg width="187" height="149" viewBox="0 0 187 149" fill="none" xmlns="http://www.w3.org/2000/svg">
<path d="M45.1551 40.3584L45.1558 40.3575L45.1562 40.3571L45.1563 40.3571L46.166 39.1608L46.0943 37.5954L46.0942 37.5951L46.0942 37.595L46.0941 37.5923L46.0935 37.5793L46.0911 37.5233C46.0889 37.4729 46.0856 37.3967 46.0815 37.2963C46.0733 37.0954 46.0616 36.7978 46.0481 36.4168C46.0211 35.6545 45.9868 34.5598 45.9581 33.2386C45.9006 30.591 45.8661 27.0583 45.9553 23.4806C46.0452 19.8721 46.2583 16.3493 46.6681 13.6708C46.8033 12.7872 46.9496 12.0678 47.096 11.5073C47.7819 11.6544 48.6429 11.8881 49.6672 12.2118C52.3448 13.0581 55.6794 14.371 58.9993 15.7814C62.2989 17.1832 65.4972 18.644 67.8766 19.7575C69.0645 20.3134 70.0442 20.7808 70.7254 21.1085C71.0659 21.2723 71.3316 21.401 71.5111 21.4883L71.7143 21.5874L71.7647 21.6121L71.7767 21.6179L71.7793 21.6192L71.7796 21.6194L71.7797 21.6194L73.1114 22.2734L74.5317 21.9048C74.5295 21.9054 74.5303 21.9051 74.5342 21.9042C74.5344 21.9041 74.5346 21.9041 74.5348 21.904C74.5429 21.902 74.5627 21.8972 74.594 21.89C74.6581 21.8751 74.7704 21.85 74.9303 21.8175C75.25 21.7524 75.7597 21.6579 76.453 21.557C77.8393 21.3554 79.9604 21.1286 82.7649 21.0629C88.3708 20.9317 96.7246 21.4439 107.42 24.1005C117.624 26.6349 125.505 30.152 130.806 33.0119C133.455 34.4415 135.457 35.7052 136.777 36.5965C137.437 37.0421 137.927 37.3943 138.241 37.6271C138.398 37.7436 138.512 37.8301 138.581 37.8836C138.616 37.9103 138.639 37.9288 138.652 37.9386L138.655 37.9414L138.657 37.9428L138.658 37.944L138.661 37.9457L138.662 37.9466L139.713 38.7922L141.07 38.8235L141.07 38.8235L141.07 38.8235L141.073 38.8236L141.086 38.8239L141.14 38.8252L141.36 38.831C141.554 38.8362 141.841 38.8444 142.208 38.8561C142.943 38.8793 143.999 38.9163 145.275 38.9711C147.832 39.0807 151.252 39.2607 154.736 39.5419C158.242 39.825 161.715 40.2033 164.413 40.695C165.387 40.8724 166.198 41.0537 166.839 41.2314C166.677 41.8253 166.435 42.5607 166.104 43.4356C165.082 46.1347 163.451 49.5373 161.675 52.9542C159.912 56.3448 158.064 59.6411 156.652 62.0971C155.947 63.323 155.353 64.3347 154.937 65.0382C154.729 65.3899 154.565 65.6643 154.454 65.8496C154.399 65.9423 154.357 66.0127 154.328 66.0593L154.297 66.1113L154.29 66.1235L154.288 66.1262L154.288 66.1265L154.288 66.1266L153.562 67.3274L153.745 68.7167L153.745 68.7169L153.745 68.7176L153.745 68.7187L153.746 68.7211L153.749 68.749C153.753 68.776 153.758 68.8198 153.765 68.8798C153.78 68.9997 153.801 69.1841 153.828 69.4284C153.881 69.9172 153.954 70.6447 154.029 71.5733C154.181 73.4322 154.343 76.0882 154.382 79.2422C154.461 85.5869 154.04 93.7804 152.119 101.512C150.095 109.663 146.902 115.545 142.912 119.746C138.936 123.931 133.974 126.651 128.07 128.184C116.062 131.302 100.404 129.457 82.3641 124.976C64.341 120.5 48.773 114.596 38.7837 105.953C33.8556 101.69 30.3701 96.8308 28.5505 91.1994C26.7322 85.5717 26.4835 78.8825 28.49 70.8042C30.3296 63.3981 34.4294 55.8159 38.2115 49.9512C40.0825 47.0499 41.8338 44.6328 43.1136 42.9459C43.7527 42.1034 44.2722 41.4457 44.6277 41.0037C44.8054 40.7827 44.9419 40.6159 45.0317 40.507C45.0766 40.4526 45.1098 40.4126 45.1306 40.3877L45.1524 40.3616L45.1551 40.3584ZM45.8536 11.3263C45.8553 11.3262 45.8572 11.3262 45.8591 11.3262C45.8241 11.3291 45.82 11.3269 45.8536 11.3263ZM168.105 41.6788C168.131 41.6938 168.128 41.6939 168.101 41.677C168.102 41.6776 168.104 41.6782 168.105 41.6788Z" fill="#E9FF9B" stroke="#4C77B0" stroke-width="8"/>
<path d="M45.8214 63.9625L16.3898 52.0241" stroke="#4C77B0" stroke-width="5"/>
<path d="M43.4238 73.6147L10.2659 67.3623" stroke="#4C77B0" stroke-width="5"/>
<path d="M41.2623 84.9789L9.35798 84.3271" stroke="#4C77B0" stroke-width="5"/>
<path d="M102.424 95.3244C99.2271 99.9743 89.7804 102.391 86.5757 101.595C81.7687 100.401 76.8757 95.4433 75.5039 88.638C74.1321 81.8326 83.4405 82.4435 90.8741 84.2899C98.3077 86.1363 105.62 90.6745 102.424 95.3244Z" fill="#E9FF9B"/>
<path d="M138.679 87.2856L171.2 90.5998" stroke="#4C77B0" stroke-width="5"/>
<path d="M136.212 97.2201L169.384 107.501" stroke="#4C77B0" stroke-width="5"/>
<path d="M132.705 108.598L162.04 123.37" stroke="#4C77B0" stroke-width="5"/>
<path d="M105.207 84.7966C104.028 86.3516 101.312 87.8994 97.8948 88.8976C96.2817 89.3687 94.7035 89.6595 93.3816 89.7757C91.9573 89.9008 91.1839 89.7912 90.9949 89.7348C87.2247 88.6091 82.7909 84.0706 81.78 77.4806C81.693 76.9135 81.7463 76.6436 81.7651 76.5734C81.7654 76.572 81.7658 76.5707 81.7661 76.5694C81.8611 76.4962 82.3173 76.2059 83.5663 76.076C86.321 75.7896 90.4708 76.5248 94.5734 77.7497C98.4692 78.9129 102.001 80.7168 104.004 82.5339C105.01 83.4462 105.321 84.0828 105.39 84.3416C105.391 84.3457 105.393 84.35 105.396 84.355C105.414 84.3946 105.451 84.4752 105.207 84.7966Z" stroke="#4C77B0" stroke-width="8"/>
</svg>
